# xmcd CD database file
#
# Track frame offsets:
#	150
#	15292
#	35185
#	50595
#	65380
#	82062
#	107127
#	123047
#	139912
#	152940
#	169885
#	184407
#	208625
#	225217
#
# Disc length: 3193 seconds
#
# Revision: 0
# Processed by: cddbd v1.4PL0 Copyright (c) Steve Scherf et al.
# Submitted via: CDex 1.51
#
DISCID=be0c770e
DTITLE=Various Artist - JAZZ SI GIRA
DYEAR=1992
DGENRE=Jazz
TTITLE0=Ultimo tango a Parigi
TTITLE1=Don't get around much anymore
TTITLE2=Va va voom
TTITLE3=How long has this been going on
TTITLE4=Laura
TTITLE5=Welcome to the road
TTITLE6=Somewhere
TTITLE7=Let's get lost
TTITLE8=Florence sur les Champs-Elysees
TTITLE9=Milou
TTITLE10=Les tricheurs
TTITLE11=i can't get started
TTITLE12=Mo' better blues
TTITLE13=A string of pearls
EXTD=YEAR: 1992
EXTT0=
EXTT1=
EXTT2=
EXTT3=
EXTT4=
EXTT5=
EXTT6=
EXTT7=
EXTT8=
EXTT9=
EXTT10=
EXTT11=
EXTT12=
EXTT13=
PLAYORDER=
